# xmcd
#
# Track frame offsets:
#	150
#	17235
#	31622
#	45670
#	62185
#	76145
#	91292
#	109417
#	125297
#	137157
#	147315
#	161582
#	174307
#	190745
#	204157
#
# Disc length: 2930 seconds
#
# Revision: 0
# Processed by: cddbd v1.5.2PL0 Copyright (c) Steve Scherf et al.
# Submitted via: audiograbber 1.83.01
#
DISCID=c20b700f
DTITLE=Billie Holiday - Lady Sings the Blues
DYEAR=1956
DGENRE=Jazz
TTITLE0=Lady sings the blues
TTITLE1=Travelin'light
TTITLE2=I must have that man
TTITLE3=SOme other spring
TTITLE4=Strange fruit
TTITLE5=No good man
TTITLE6=God bless the child
TTITLE7=Good morning heartache
TTITLE8=Love me or leave me
TTITLE9=Too marvelous for words
TTITLE10=Willow weep for me
TTITLE11=I thought about you
TTITLE12=P.S. I love you (Additional Track for CD)
TTITLE13=Softly (Additional Track for CD)
TTITLE14=Stormy blues (Additional Track for CD)
EXTD=ID3G: 8
EXTT0=
EXTT1=
EXTT2=
EXTT3=
EXTT4=
EXTT5=
EXTT6=
EXTT7=
EXTT8=
EXTT9=
EXTT10=
EXTT11=
EXTT12=
EXTT13=
EXTT14=
PLAYORDER=
